<svg width="30.000000" height="30.000000" viewBox="0 0 30 30" fill="none" xmlns="http://www.w3.org/2000/svg" xmlns:xlink="http://www.w3.org/1999/xlink">
	<desc>
			Created with Pixso.
	</desc>
	<defs/>
	<path id="Vector" d="M0 0L30 0L30 30L0 30L0 0Z" fill="#FFFFFF" fill-opacity="0.010000" fill-rule="nonzero"/>
	<path id="Vector" d="M15 2.5C8.09 2.5 2.5 8.09 2.5 15C2.5 21.9 8.09 27.5 15 27.5C21.9 27.5 27.5 21.9 27.5 15C27.5 8.09 21.9 2.5 15 2.5ZM0 15C0 6.71 6.71 0 15 0C23.28 0 30 6.71 30 15C30 23.28 23.28 30 15 30C6.71 30 0 23.28 0 15Z" fill="#FFFCFC" fill-opacity="1.000000" fill-rule="evenodd"/>
	<path id="Vector" d="M11.98 28.41C11.86 28.26 11.86 26.87 11.98 24.24C10.69 24.29 9.87 24.2 9.53 23.97C9.02 23.64 8.51 22.6 8.05 21.87C7.6 21.14 6.59 21.02 6.18 20.86C5.77 20.69 5.67 20.03 7.3 20.53C8.94 21.03 9.01 22.41 9.53 22.73C10.05 23.05 11.28 22.91 11.84 22.65C12.39 22.4 12.35 21.44 12.45 21.06C12.58 20.7 12.13 20.63 12.12 20.62C11.58 20.62 8.72 20 7.93 17.23C7.14 14.45 8.16 12.64 8.7 11.86C9.06 11.34 9.03 10.24 8.6 8.54C10.14 8.34 11.33 8.83 12.17 10C12.17 10 13.26 9.34 15 9.34C16.73 9.34 17.34 9.88 17.82 10C18.29 10.11 18.67 7.95 21.6 8.54C20.99 9.74 20.48 11.25 20.87 11.86C21.26 12.48 22.79 14.44 21.85 17.23C21.22 19.08 19.99 20.22 18.14 20.62C17.93 20.69 17.83 20.8 17.83 20.95C17.83 21.17 18.11 21.2 18.52 22.25C18.8 22.96 18.82 24.96 18.58 28.27C17.99 28.43 17.53 28.53 17.2 28.58C16.61 28.67 15.97 28.72 15.35 28.74C14.72 28.76 14.51 28.76 13.64 28.68C13.07 28.63 12.51 28.54 11.98 28.41Z" fill="#FFFCFC" fill-opacity="1.000000" fill-rule="evenodd"/>
</svg>
