<svg width="30.000000" height="29.996674" viewBox="0 0 30 29.9967" fill="none" xmlns="http://www.w3.org/2000/svg" xmlns:xlink="http://www.w3.org/1999/xlink">
	<desc>
			Created with Pixso.
	</desc>
	<defs/>
	<path id="Vector" d="M29.97 14.11C29.46 5.41 21.56 -1.29 12.45 0.21C6.18 1.24 1.16 6.32 0.18 12.59C-0.39 16.22 0.36 19.66 2 22.49L0.66 27.46C0.36 28.58 1.4 29.6 2.51 29.29L7.4 27.94C9.62 29.24 12.21 29.99 14.99 29.99C23.45 29.99 30.47 22.54 29.97 14.11ZM22.32 20.57C22.19 20.84 22.02 21.1 21.81 21.34C21.44 21.74 21.03 22.04 20.58 22.22C20.13 22.42 19.64 22.51 19.11 22.51C18.35 22.51 17.52 22.33 16.67 21.95C15.8 21.58 14.94 21.08 14.09 20.47C13.22 19.84 12.41 19.13 11.63 18.37C10.85 17.59 10.16 16.76 9.53 15.91C8.91 15.05 8.42 14.2 8.06 13.34C7.7 12.49 7.52 11.66 7.52 10.88C7.52 10.37 7.61 9.88 7.79 9.43C7.97 8.96 8.25 8.54 8.66 8.17C9.14 7.69 9.66 7.46 10.22 7.46C10.43 7.46 10.64 7.51 10.83 7.6C11.03 7.69 11.21 7.82 11.34 8.02L13.08 10.48C13.22 10.67 13.32 10.84 13.38 11C13.46 11.17 13.49 11.32 13.49 11.47C13.49 11.65 13.43 11.83 13.32 12.01C13.22 12.19 13.08 12.37 12.9 12.55L12.33 13.15C12.24 13.24 12.21 13.33 12.21 13.45C12.21 13.51 12.23 13.57 12.24 13.63C12.27 13.69 12.29 13.73 12.3 13.78C12.44 14.03 12.68 14.35 13.01 14.74C13.35 15.13 13.71 15.53 14.1 15.92C14.51 16.33 14.9 16.69 15.3 17.03C15.69 17.36 16.02 17.59 16.28 17.72C16.32 17.74 16.37 17.77 16.41 17.78C16.47 17.81 16.53 17.81 16.61 17.81C16.74 17.81 16.83 17.77 16.92 17.68L17.49 17.11C17.69 16.91 17.87 16.78 18.03 16.69C18.21 16.58 18.38 16.52 18.57 16.52C18.72 16.52 18.87 16.55 19.04 16.63C19.2 16.7 19.38 16.79 19.56 16.93L22.05 18.7C22.25 18.83 22.38 19 22.47 19.18C22.55 19.37 22.59 19.55 22.59 19.76C22.5 20.02 22.44 20.3 22.32 20.57Z" fill="#FFFCFC" fill-opacity="1.000000" fill-rule="nonzero"/>
</svg>
